<svg width="18" height="18" viewBox="0 0 18 18" fill="none" xmlns="http://www.w3.org/2000/svg">
<path d="M3.25469 14.7453C2.53594 14.0266 3.0125 12.5164 2.64688 11.632C2.26719 10.7188 0.875 9.97656 0.875 9C0.875 8.02344 2.26719 7.28125 2.64688 6.36797C3.0125 5.48437 2.53594 3.97344 3.25469 3.25469C3.97344 2.53594 5.48437 3.0125 6.36797 2.64688C7.28516 2.26719 8.02344 0.875 9 0.875C9.97656 0.875 10.7188 2.26719 11.632 2.64688C12.5164 3.0125 14.0266 2.53594 14.7453 3.25469C15.4641 3.97344 14.9875 5.48359 15.3531 6.36797C15.7328 7.28516 17.125 8.02344 17.125 9C17.125 9.97656 15.7328 10.7188 15.3531 11.632C14.9875 12.5164 15.4641 14.0266 14.7453 14.7453C14.0266 15.4641 12.5164 14.9875 11.632 15.3531C10.7188 15.7328 9.97656 17.125 9 17.125C8.02344 17.125 7.28125 15.7328 6.36797 15.3531C5.48437 14.9875 3.97344 15.4641 3.25469 14.7453Z" stroke="white" stroke-width="1.5" stroke-linecap="square"/>
<path d="M5.875 9.625L7.75 11.5L12.125 7.125" stroke="white" stroke-width="1.5" stroke-linecap="square" stroke-linejoin="round"/>
</svg>
